<svg width="93" height="12" viewBox="0 0 93 12" fill="none" xmlns="http://www.w3.org/2000/svg">
<path d="M78.7107 4.76033V12H81.0247V7.17355H89.4876V12H91.8016V4.76033H78.7107ZM80.7603 2.41322H89.6859C90.9421 2.18182 91.8347 1.05785 92.0991 0H78.3471C78.6115 1.05785 79.5371 2.14876 80.7603 2.41322ZM71.6694 12C72.8264 11.5041 73.4545 10.6446 73.719 9.65289H63.3057V0.0330578H60.9586V12H71.6694ZM43.6032 2.38017H51.8677C53.1239 2.01653 54.1487 1.05785 54.4132 0.0330578H41.3223V7.10744H52.033V9.58678H43.6363C42.314 9.95041 41.19 10.843 40.628 12H54.347V4.76033H43.6363L43.6032 2.38017ZM23.2396 2.41322H32.1652C33.4214 2.18182 34.3471 1.05785 34.5785 0H20.7933C21.0578 1.05785 21.9834 2.14876 23.2396 2.41322ZM23.2396 7.1405H32.1652C33.4214 6.90909 34.3471 5.78512 34.5785 4.72727H20.7933C21.0578 5.78512 21.9834 6.87603 23.2396 7.1405ZM23.2396 12H32.1652C33.4214 11.7686 34.3471 10.6446 34.5785 9.58678H20.7933C21.0578 10.6446 21.9834 11.7686 23.2396 12Z" fill="white"/>
<path d="M0 0.0330579C0.264463 1.09091 1.19008 2.14876 2.41322 2.41322H6.18182L6.38017 2.47934V11.9669H8.72727V2.47934L8.92562 2.41322H12.6942C13.9504 2.08264 14.843 1.09091 15.1074 0.0330579V0L0 0.0330579Z" fill="white"/>
</svg>
